# xmcd CD database file
#
# Track frame offsets:
#	150
#	19898
#	44466
#	67566
#	90858
#	110264
#	132971
#
# Disc length: 2033 seconds
#
# Revision: 0
# Processed by: cddbd v1.5.2PL0 Copyright (c) Steve Scherf et al.
# Submitted via: CDex 1.70beta2
#
DISCID=4a07ef07
DTITLE=Michael Franks - Michael Franks Special
DYEAR=2012
DGENRE=Jazz
TTITLE0=01 Michael Franks and Laura Fygi - Tell Me All About It
TTITLE1=02 Bob Mintzer Big Band and Michael Franks - My Foolish Heart
TTITLE2=03 Michael Franks and Joe Sample - Leading me back to you
TTITLE3=04 Michael Franks and The Yellow Jackets - The Dream
TTITLE4=05 Dindi - Laura Fygi - Michael Franks
TTITLE5=06 Michael Franks - I Bought You A Plastic Star For your aluminum tree
TTITLE6=07 Michael Franks and Carla Bley - Let It Snow - let it snow, let it snow
EXTD=YEAR: 2012
EXTT0=
EXTT1=
EXTT2=
EXTT3=
EXTT4=
EXTT5=
EXTT6=
PLAYORDER=
